<svg width="354.057" height="354.057" xmlns="http://www.w3.org/2000/svg">

 <g>
  <title>background</title>
  <rect fill="#303030" id="canvas_background" height="356.057" width="356.057" y="-1" x="-1"/>
 </g>
 <g>
  <title>Layer 1</title>
  <path fill="#826fc7" id="svg_1" d="m1.306,78.916c-1.121,1.393 -1.552,3.216 -1.168,4.963l9.081,41.524c9.636,44.038 27.51,85.268 52.996,122.691l-52.14,52.14c-6.904,6.898 -6.904,18.133 0,25.032l18.718,18.718c3.452,3.452 7.984,5.175 12.516,5.175s9.064,-1.723 12.516,-5.175l47.762,-47.762c21.727,22.223 46.045,41.418 72.439,57.014c0.926,0.549 1.965,0.82 3.004,0.82s2.077,-0.271 3.004,-0.82c83.911,-49.585 143.976,-132.628 164.806,-227.833l9.081,-41.524c0.378,-1.747 -0.047,-3.57 -1.168,-4.963c-1.115,-1.393 -2.809,-2.201 -4.597,-2.201c-3.505,0 -7.099,-0.13 -10.716,-0.33l16.458,-69.117c0.478,-1.989 -0.118,-4.089 -1.57,-5.535s-3.558,-2.048 -5.535,-1.57l-123.921,29.504c-1.103,0.26 -2.054,0.885 -2.832,1.694l-39.424,-30.148c-2.113,-1.617 -5.051,-1.617 -7.17,0l-44.068,33.694c-35.252,26.961 -79.101,41.808 -123.476,41.808c-1.788,0 -3.475,0.808 -4.596,2.201zm74.539,94.804c-3.9,-10.486 -7.128,-21.296 -9.512,-32.201l-4.91,-22.429c31.127,-1.499 61.523,-12.551 86.2,-31.428l29.215,-21.22l9.489,7.665l-92.443,117.652l-18.039,-18.039zm-0.861,15.826l89.528,89.528l-26.701,3.812l-15.614,-15.614l-35.405,-35.405l-15.614,-15.614l3.806,-26.707zm262.601,-164.729l-24.199,101.637l-159.49,125.316l-21.633,-21.633l205.322,-205.32zm-156.385,254.257l-18.901,-18.901l112.205,-88.159c-19.626,56.188 -48.836,92.573 -97.471,122.054c-2.089,-1.275 -4.142,-2.632 -6.202,-3.977l7.034,-1.003c2.213,-0.313 4.06,-1.853 4.762,-3.971s0.154,-4.462 -1.427,-6.043zm-86.784,7.63l-27.061,-27.061l15.26,-15.26l27.061,27.061l-15.26,15.26zm-48.936,48.936c-2.231,2.225 -6.113,2.225 -8.344,0l-18.718,-18.718c-1.109,-1.115 -1.723,-2.596 -1.723,-4.172s0.614,-3.057 1.723,-4.172l40.592,-40.592l27.061,27.061l-40.591,40.593zm295.374,-247.253l-7.547,34.491c-19.88,90.879 -76.753,170.288 -156.279,218.403c-24.388,-14.758 -46.9,-32.72 -67.099,-53.403l8.09,-8.09l13.531,13.531c1.115,1.115 2.62,1.729 4.172,1.729c0.277,0 0.555,-0.018 0.838,-0.059l17.018,-2.431c6.627,4.797 13.472,9.353 20.447,13.472c0.926,0.549 1.965,0.82 3.004,0.82s2.077,-0.271 3.004,-0.82c57.947,-34.243 90.23,-76.977 111.114,-147.091l31.151,-24.477c1.05,-0.82 1.788,-1.977 2.095,-3.275l10.279,-43.183c2.063,0.135 4.14,0.312 6.182,0.383zm-11.613,-71.914l-54.341,54.341l-62.467,0l0,11.802l50.665,0l-11.802,11.802l-50.665,0l0,11.802l38.863,0l-115.574,115.574l-21.633,-21.633l125.317,-159.489l101.637,-24.199zm-192.693,27.817l40.48,-30.956l35.635,27.25l-19.048,24.241l-12.882,-10.403c-2.089,-1.688 -5.028,-1.753 -7.175,-0.183l-32.992,23.963c-24.678,18.871 -55.374,29.262 -86.442,29.262c-1.788,0 -3.476,0.808 -4.597,2.201s-1.552,3.216 -1.168,4.963l6.438,29.416c2.502,11.424 5.854,22.76 9.943,33.741l-5.671,39.713c-0.266,1.841 0.354,3.694 1.67,5.01l13.531,13.531l-3.546,3.546c-23.963,-35.683 -40.828,-74.876 -49.975,-116.708l-7.541,-34.485c44.439,-1.539 87.976,-17.064 123.34,-44.102z"/>
  <path fill="#bdadff" id="svg_2" d="m330.451,218.336l11.802,0l0,11.802l-11.802,0l0,-11.802z"/>
  <path fill="#bdadff" id="svg_3" d="m318.649,230.138l11.802,0l0,11.802l-11.802,0l0,-11.802z"/>
  <path fill="#bdadff" id="svg_4" d="m342.252,230.138l11.802,0l0,11.802l-11.802,0l0,-11.802z"/>
  <path fill="#bdadff" id="svg_5" d="m330.451,241.94l11.802,0l0,11.802l-11.802,0l0,-11.802z"/>
  <path fill="#bdadff" id="svg_6" d="m306.847,300.948l11.802,0l0,11.802l-11.802,0l0,-11.802z"/>
  <path fill="#bdadff" id="svg_7" d="m295.045,312.75l11.802,0l0,11.802l-11.802,0l0,-11.802z"/>
  <path fill="#bdadff" id="svg_8" d="m318.649,312.75l11.802,0l0,11.802l-11.802,0l0,-11.802z"/>
  <path fill="#bdadff" id="svg_9" d="m306.847,324.552l11.802,0l0,11.802l-11.802,0l0,-11.802z"/>
  <path fill="#bdadff" id="svg_10" d="m35.407,0.004l11.802,0l0,11.802l-11.802,0l0,-11.802z"/>
  <path fill="#bdadff" id="svg_11" d="m23.605,11.805l11.802,0l0,11.802l-11.802,0l0,-11.802z"/>
  <path fill="#bdadff" id="svg_12" d="m47.209,11.805l11.802,0l0,11.802l-11.802,0l0,-11.802z"/>
  <path fill="#bdadff" id="svg_13" d="m35.407,23.607l11.802,0l0,11.802l-11.802,0l0,-11.802z"/>
  <path fill="#bdadff" id="svg_14" d="m247.838,312.75l11.802,0l0,11.802l-11.802,0l0,-11.802z"/>
  <path fill="#bdadff" id="svg_15" d="m82.614,5.904l11.802,0l0,11.802l-11.802,0l0,-11.802z"/>
  <path fill="#bdadff" id="svg_16" d="m0.001,53.111l11.802,0l0,11.802l-11.802,0l0,-11.802z"/>
  <path fill="#bdadff" id="svg_17" d="m342.252,342.255l11.802,0l0,11.802l-11.802,0l0,-11.802z"/>
 </g>
</svg>